<svg xmlns="http://www.w3.org/2000/svg" width="260" height="260" viewBox="0 0 260 260">
  <defs>
    <linearGradient id="logo-favicon-black-ring-black-a" x1="-30.143%" x2="129.298%" y1="0%" y2="100%">
      <stop offset="0%" stop-color="#323232"/>
      <stop offset="100%"/>
    </linearGradient>
    <linearGradient id="logo-favicon-black-ring-black-b" x1="100%" x2="0%" y1="50%" y2="50%">
      <stop offset="0%" stop-color="#415EFA"/>
      <stop offset="100%" stop-color="#50E3C2"/>
    </linearGradient>
  </defs>
  <g fill="none">
    <path fill="url(#logo-favicon-black-ring-black-a)" d="M130,260 C58.2029825,260 0,201.797017 0,130 C0,58.2029825 58.2029825,0 130,0 C201.797017,0 260,58.2029825 260,130 C260,201.797017 201.797017,260 130,260 Z"/>
    <path fill="#4266F7" d="M250.160912,95.4395411 L180.351361,198.886047 C180.042423,199.343842 179.420864,199.464515 178.963069,199.155578 C178.827461,199.064064 178.716376,198.940678 178.639556,198.796239 L164.010494,171.290584 C163.836809,170.96402 163.857567,170.568253 164.064463,170.261651 L235.98059,63.6880953 C242.100571,73.4485237 246.909604,84.1145986 250.160912,95.4395411 Z M119.519226,198.663616 L104.803682,171.007239 C104.629902,170.680637 104.650638,170.284775 104.857589,169.978116 L178.238425,61.2430399 C178.424341,60.9675523 178.734976,60.8024324 179.067328,60.8024324 L212.441353,60.8024324 C212.993638,60.8024324 213.441353,61.2501477 213.441353,61.8024324 C213.441353,62.0017727 213.381777,62.1965643 213.270272,62.3618012 L121.230955,198.753254 C120.922024,199.211054 120.300467,199.331735 119.842667,199.022804 C119.707104,198.931324 119.596047,198.807992 119.519226,198.663616 Z M153.886573,62.3610425 L118.547768,114.832485 C118.239256,115.290566 117.61781,115.411817 117.159728,115.103305 C117.023565,115.011601 116.912072,114.887785 116.835093,114.742787 L88.9781251,62.2713449 C88.7191519,61.7835424 88.9046546,61.178161 89.3924572,60.9191878 C89.5368664,60.8425213 89.6978711,60.8024324 89.8613697,60.8024324 L153.057142,60.8024324 C153.609427,60.8024324 154.057142,61.2501477 154.057142,61.8024324 C154.057142,62.0014609 153.997752,62.1959622 153.886573,62.3610425 Z"/>
    <path fill="#4ED4C8" d="M29.3637507,204.157815 C28.2812251,202.691216 27.2299927,201.200108 26.2110392,199.685477 L95.6601888,96.4860551 C95.9685349,96.0278618 96.5899378,95.9063866 97.0481312,96.2147326 C97.1844243,96.3064526 97.2960217,96.430338 97.3730577,96.5754373 L112.002435,124.130217 C112.175542,124.456269 112.154939,124.851171 111.948842,125.157438 L79.3675097,173.574453 C79.0591728,174.032652 79.1806605,174.654053 79.63886,174.96239 C79.8038748,175.073433 79.998255,175.132746 80.1971533,175.132746 L96.5747364,175.132746 C96.9443704,175.132746 97.2838586,175.336646 97.4575113,175.66295 L111.888996,202.780566 C112.148457,203.268109 111.96356,203.873676 111.476017,204.133137 C111.331386,204.210107 111.170058,204.250362 111.006221,204.250362 L53.1634397,204.250362 C53.1378835,204.250362 53.1171661,204.229645 53.1171661,204.204089 C53.1171661,204.178532 53.0964488,204.157815 53.0708926,204.157815 L29.3637507,204.157815 Z M156.514066,175.663087 L170.940164,202.780703 C171.199549,203.268286 171.014559,203.873824 170.526975,204.13321 C170.382378,204.210133 170.221101,204.250362 170.057316,204.250362 L129.874713,204.250362 C129.322429,204.250362 128.874713,203.802647 128.874713,203.250362 C128.874713,203.051023 128.934289,202.856233 129.045792,202.690997 L147.345066,175.573381 C147.530978,175.297877 147.841623,175.132746 148.173987,175.132746 L155.631218,175.132746 C156.000908,175.132746 156.340438,175.336707 156.514066,175.663087 Z M92.3134195,90.1687687 L44.5501147,90.1687687 C43.9978299,90.1687687 43.5501147,89.7210534 43.5501147,89.1687687 L43.5501147,61.8024324 C43.5501147,61.2501477 43.9978299,60.8024324 44.5501147,60.8024324 L77.7812858,60.8024324 C78.1512443,60.8024324 78.490975,61.0066871 78.6644849,61.3334341 L93.1966185,88.6997703 C93.4556392,89.1875477 93.2701952,89.7929471 92.7824178,90.0519677 C92.637987,90.1286637 92.4769509,90.1687687 92.3134195,90.1687687 Z"/>
    <path fill="url(#logo-favicon-black-ring-black-a)" d="M130,255 C60.9644063,255 5,199.035594 5,130 C5,60.9644063 60.9644063,5 130,5 C199.035594,5 255,60.9644063 255,130 C255,199.035594 199.035594,255 130,255 Z M130,236.884058 C189.030435,236.884058 236.884058,189.030435 236.884058,130 C236.884058,70.9695648 189.030435,23.115942 130,23.115942 C70.9695648,23.115942 23.115942,70.9695648 23.115942,130 C23.115942,189.030435 70.9695648,236.884058 130,236.884058 Z"/>
    <path fill="url(#logo-favicon-black-ring-black-b)" d="M130,260 C58.2029825,260 0,201.797017 0,130 C0,58.2029825 58.2029825,0 130,0 C201.797017,0 260,58.2029825 260,130 C260,201.797017 201.797017,260 130,260 Z M130,255 C199.035594,255 255,199.035594 255,130 C255,60.9644063 199.035594,5 130,5 C60.9644063,5 5,60.9644063 5,130 C5,199.035594 60.9644063,255 130,255 Z"/>
  </g>
</svg>
