<svg xmlns="http://www.w3.org/2000/svg" width="254" height="254" viewBox="0 0 254 254">
  <defs>
    <linearGradient id="logo-favicon-a" x1="100%" x2="0%" y1="50%" y2="50%">
      <stop offset="0%" stop-color="#415EFA"/>
      <stop offset="100%" stop-color="#50E3C2"/>
    </linearGradient>
  </defs>
  <g fill="none" fill-rule="evenodd" transform="translate(2 2)">
    <path fill="#436AF6" fill-rule="nonzero" d="M244.796005,89.1931438 L174.665127,193.115796 C174.35619,193.573592 173.73463,193.694265 173.276835,193.385328 C173.141228,193.293814 173.030143,193.170428 172.953322,193.025989 L158.384616,165.633816 C158.210931,165.307251 158.231689,164.911485 158.438586,164.604882 L230.463387,57.8702805 C236.602327,67.4947187 241.459982,78.0157882 244.796005,89.1931438 Z M114.060378,192.893877 L99.4055232,165.35156 C99.231743,165.024958 99.2524788,164.629097 99.4594304,164.322438 L172.555596,56.0091844 C172.741511,55.7336968 173.052146,55.5685769 173.384498,55.5685769 L206.620882,55.5685769 C207.173167,55.5685769 207.620882,56.0162921 207.620882,56.5685769 C207.620882,56.7679172 207.561306,56.9627088 207.449801,57.1279457 L115.772107,192.983516 C115.463176,193.441315 114.841618,193.561997 114.383819,193.253066 C114.248256,193.161586 114.137198,193.038253 114.060378,192.893877 Z M148.29451,57.127187 L113.099243,109.385504 C112.790731,109.843586 112.169284,109.964836 111.711202,109.656324 C111.575039,109.56462 111.463546,109.440804 111.386568,109.295806 L83.6427471,57.0374894 C83.3837739,56.5496869 83.5692766,55.9443055 84.0570792,55.6853323 C84.2014884,55.6086658 84.3624931,55.5685769 84.5259917,55.5685769 L147.46508,55.5685769 C148.017364,55.5685769 148.46508,56.0162921 148.46508,56.5685769 C148.46508,56.7676054 148.405689,56.9621067 148.29451,57.127187 Z"/>
    <path fill="#4CCCC6" fill-rule="nonzero" d="M23.788855,198.372593 C22.8005011,197.011601 21.8389285,195.629901 20.9049112,194.228265 L90.2925305,91.1202756 C90.6008766,90.6620822 91.2222796,90.540607 91.6804729,90.8489531 C91.8167661,90.940673 91.9283634,91.0645585 92.0053995,91.2096578 L106.574421,118.650756 C106.747528,118.976808 106.726925,119.37171 106.520828,119.677977 L74.0701294,167.900865 C73.7617925,168.359065 73.8832802,168.980465 74.3414797,169.288802 C74.5064945,169.399846 74.7008746,169.459159 74.899773,169.459159 L91.2048312,169.459159 C91.5744653,169.459159 91.9139534,169.663059 92.0876061,169.989362 L106.459491,196.994988 C106.718953,197.482531 106.534056,198.088097 106.046513,198.347559 C105.901881,198.424529 105.740554,198.464784 105.576716,198.464784 L47.962811,198.464784 C47.9373532,198.464784 47.9167155,198.444146 47.9167155,198.418688 C47.9167155,198.39323 47.8960778,198.372593 47.8706199,198.372593 L23.788855,198.372593 Z M150.91702,169.989499 L165.28354,196.995124 C165.542926,197.482708 165.357936,198.088246 164.870352,198.347631 C164.725755,198.424554 164.564478,198.464784 164.400693,198.464784 L124.386277,198.464784 C123.833992,198.464784 123.386277,198.017069 123.386277,197.464784 C123.386277,197.265445 123.445852,197.070655 123.557356,196.905418 L141.781056,169.899793 C141.966969,169.62429 142.277614,169.459159 142.609977,169.459159 L150.034172,169.459159 C150.403862,169.459159 150.743392,169.663119 150.91702,169.989499 Z M86.9558168,84.8219657 L39.3864604,84.8219657 C38.8341757,84.8219657 38.3864604,84.3742505 38.3864604,83.8219657 L38.3864604,56.5685769 C38.3864604,56.0162921 38.8341757,55.5685769 39.3864604,55.5685769 L72.4836608,55.5685769 C72.8536192,55.5685769 73.1933499,55.7728316 73.3668598,56.0995785 L87.8390159,83.3529674 C88.0980365,83.8407447 87.9125925,84.4461441 87.4248152,84.7051647 C87.2803844,84.7818607 87.1193483,84.8219657 86.9558168,84.8219657 Z"/>
    <path fill="url(#logo-favicon-a)" fill-rule="nonzero" d="M125,250 C55.9644063,250 0,194.035594 0,125 C0,55.9644063 55.9644063,0 125,0 C194.035594,0 250,55.9644063 250,125 C250,194.035594 194.035594,250 125,250 Z M125,231.884058 C184.030435,231.884058 231.884058,184.030435 231.884058,125 C231.884058,65.9695648 184.030435,18.115942 125,18.115942 C65.9695648,18.115942 18.115942,65.9695648 18.115942,125 C18.115942,184.030435 65.9695648,231.884058 125,231.884058 Z"/>
    <path stroke="#000" stroke-linejoin="round" stroke-width="4" d="M125,0 C169.330079,0 208.270441,23.0761192 230.464052,57.8713229 L230.463387,57.8702805 C230.717281,58.2683283 230.968984,58.6679097 231.218478,59.0690078 C231.265421,59.1444747 231.312328,59.2200638 231.359156,59.2957065 C231.975961,60.2920421 232.579184,61.2977376 233.168538,62.3124866 C233.220844,62.4025485 233.272805,62.492273 233.324658,62.582068 C233.601518,63.0615134 233.875481,63.5433134 234.14632,64.0270986 C234.198219,64.1198041 234.249906,64.212407 234.301479,64.3050823 C234.578055,64.8020853 234.851376,65.3012402 235.121376,65.8024492 C235.142993,65.8425762 235.164839,65.8831842 235.186664,65.9238056 C235.460647,66.4337619 235.730973,66.9454165 235.997837,67.4591579 C236.02162,67.5049411 236.045518,67.5510185 236.069389,67.5971127 C236.336314,68.1125433 236.599653,68.6298621 236.859481,69.1492429 C236.907247,69.2447222 236.95527,69.3410269 237.003172,69.4374023 C237.803489,71.0476067 238.569785,72.6767945 239.301488,74.3247484 C239.364034,74.4656164 239.426206,74.6063459 239.488125,74.7472114 C239.712535,75.2577354 239.93368,75.7701658 240.151483,76.2843562 C240.17578,76.3417159 240.200123,76.3993076 240.224425,76.4569214 C240.443514,76.9763333 240.659109,77.4973245 240.871268,78.0200764 C240.894775,78.0779956 240.918435,78.1364195 240.942052,78.1948652 C241.157234,78.7273898 241.368662,79.2612444 241.576506,79.7968873 C241.613318,79.8917577 241.649941,79.9864834 241.686451,80.0812648 C241.895351,80.6235766 242.100623,81.1678299 242.302192,81.7138771 C242.321026,81.7648997 242.339812,81.8158943 242.358566,81.8669046 C242.780097,83.0134617 243.185356,84.1680534 243.574006,85.3302522 C243.605734,85.4251282 243.637501,85.5205084 243.669157,85.6159396 C243.844581,86.1447943 244.016406,86.6746986 244.184774,87.2061405 C244.222508,87.3252428 244.260103,87.4445351 244.297524,87.5639044 C244.467298,88.1054714 244.633458,88.6485286 244.796005,89.1931438 C248.181718,100.537388 250,112.556353 250,125 C250,194.035594 194.035594,250 125,250 C83.379188,250 46.5094304,229.658318 23.7901482,198.374374 L23.788855,198.372593 C23.1827755,197.538004 22.5867668,196.695628 22.0010075,195.845643 C21.9346678,195.749378 21.8686625,195.653312 21.8027881,195.557148 C21.5008806,195.116428 21.2015066,194.673352 20.9049112,194.228265 C7.69763796,174.40871 0,150.603295 0,125 C0,55.9644063 55.9644063,0 125,0 Z M125,231.884058 C184.030435,231.884058 231.884058,184.030435 231.884058,125 C231.884058,119.87411 231.523229,114.832496 230.825585,109.899172 L174.665127,193.115796 C174.35619,193.573592 173.73463,193.694265 173.276835,193.385328 C173.141228,193.293814 173.030143,193.170428 172.953322,193.025989 L158.384616,165.633816 C158.210931,165.307251 158.231689,164.911485 158.438586,164.604882 L219.232952,74.5141899 C215.894487,68.2959131 211.95851,62.4462424 207.501814,57.0419712 L207.449801,57.1279457 L207.449801,57.1279457 L115.772107,192.983516 C115.463176,193.441315 114.841618,193.561997 114.383819,193.253066 C114.248256,193.161586 114.137198,193.038253 114.060378,192.893877 L99.4055232,165.35156 C99.231743,165.024958 99.2524788,164.629097 99.4594304,164.322438 L172.555596,56.0091844 C172.741511,55.7336968 173.052146,55.5685769 173.384498,55.5685769 L206.263348,55.5673085 C186.659597,32.6450226 157.526523,18.115942 125,18.115942 C92.473477,18.115942 63.3404026,32.6450226 43.7366521,55.5673085 L72.4836608,55.5685769 C72.8536192,55.5685769 73.1933499,55.7728316 73.3668598,56.0995785 L87.8390159,83.3529674 C88.0980365,83.8407447 87.9125925,84.4461441 87.4248152,84.7051647 C87.2803844,84.7818607 87.1193483,84.8219657 86.9558168,84.8219657 L39.3864604,84.8219657 C38.8341757,84.8219657 38.3864604,84.3742505 38.3864604,83.8219657 L38.384229,62.361635 C25.6332206,79.9629697 18.115942,101.603608 18.115942,125 C18.115942,144.174827 23.1651791,162.170342 32.0065876,177.729478 L90.2925305,91.1202756 C90.6008766,90.6620822 91.2222796,90.540607 91.6804729,90.8489531 C91.8167661,90.940673 91.9283634,91.0645585 92.0053995,91.2096578 L106.574421,118.650756 C106.747528,118.976808 106.726925,119.37171 106.520828,119.677977 L74.0701294,167.900865 C73.7617925,168.359065 73.8832802,168.980465 74.3414797,169.288802 C74.5064945,169.399846 74.7008746,169.459159 74.899773,169.459159 L91.2048312,169.459159 C91.5744653,169.459159 91.9139534,169.663059 92.0876061,169.989362 L106.459491,196.994988 C106.718953,197.482531 106.534056,198.088097 106.046513,198.347559 C105.901881,198.424529 105.740554,198.464784 105.576716,198.464784 L47.962811,198.464784 C47.9373532,198.464784 47.9167155,198.444146 47.9167155,198.418688 C47.9167155,198.39323 47.8960778,198.372593 47.8706199,198.372593 L47.2784731,198.37319 C66.7650787,219.007253 94.3787699,231.884058 125,231.884058 Z M150.034172,169.459159 C150.403862,169.459159 150.743392,169.663119 150.91702,169.989499 L165.28354,196.995124 C165.542926,197.482708 165.357936,198.088246 164.870352,198.347631 C164.725755,198.424554 164.564478,198.464784 164.400693,198.464784 L124.386277,198.464784 C123.833992,198.464784 123.386277,198.017069 123.386277,197.464784 C123.386277,197.265445 123.445852,197.070655 123.557356,196.905418 L141.781056,169.899793 C141.966969,169.62429 142.277614,169.459159 142.609977,169.459159 L150.034172,169.459159 Z M147.46508,55.5685769 C148.017364,55.5685769 148.46508,56.0162921 148.46508,56.5685769 C148.46508,56.7676054 148.405689,56.9621067 148.29451,57.127187 L113.099243,109.385504 C112.790731,109.843586 112.169284,109.964836 111.711202,109.656324 C111.575039,109.56462 111.463546,109.440804 111.386568,109.295806 L83.6427471,57.0374894 C83.3837739,56.5496869 83.5692766,55.9443055 84.0570792,55.6853323 C84.2014884,55.6086658 84.3624931,55.5685769 84.5259917,55.5685769 L147.46508,55.5685769 Z"/>
  </g>
</svg>
