<svg xmlns="http://www.w3.org/2000/svg" xmlns:xlink="http://www.w3.org/1999/xlink" width="320" height="900" viewBox="0 0 320 900">
  <defs>
    <polygon id="stripes-a" points="0 0 320 0 320 900 0 900"/>
    <linearGradient id="stripes-c" x1="50%" x2="50%" y1="71.739%" y2="0%">
      <stop offset="0%" stop-color="#4D9BFF" stop-opacity=".25"/>
      <stop offset="100%" stop-color="#253858" stop-opacity="0"/>
    </linearGradient>
    <linearGradient id="stripes-d" x1="50%" x2="50%" y1="71.739%" y2="21.608%">
      <stop offset="0%" stop-color="#4D9BFF" stop-opacity=".199"/>
      <stop offset="100%" stop-color="#253858" stop-opacity="0"/>
    </linearGradient>
    <linearGradient id="stripes-e" x1="50%" x2="50%" y1="81.502%" y2="18.153%">
      <stop offset="0%" stop-color="#4D9BFF" stop-opacity=".135"/>
      <stop offset="100%" stop-color="#253858" stop-opacity="0"/>
    </linearGradient>
    <linearGradient id="stripes-f" x1="50%" x2="50%" y1="42.433%" y2="0%">
      <stop offset="0%" stop-color="#50E3C2" stop-opacity="0"/>
      <stop offset="98.564%" stop-color="#50E3C2" stop-opacity=".174"/>
    </linearGradient>
    <linearGradient id="stripes-g" x1="50%" x2="50%" y1="71.739%" y2="0%">
      <stop offset="0%" stop-color="#4D9BFF" stop-opacity=".25"/>
      <stop offset="100%" stop-color="#253858" stop-opacity="0"/>
    </linearGradient>
    <linearGradient id="stripes-h" x1="50%" x2="50%" y1="71.739%" y2="0%">
      <stop offset="0%" stop-color="#253858" stop-opacity="0"/>
      <stop offset="100%" stop-color="#4D9BFF" stop-opacity=".25"/>
    </linearGradient>
    <linearGradient id="stripes-i" x1="50%" x2="50%" y1="42.433%" y2=".609%">
      <stop offset="0%" stop-color="#50E3C2" stop-opacity="0"/>
      <stop offset="100%" stop-color="#50E3C2" stop-opacity=".174"/>
    </linearGradient>
  </defs>
  <g fill="none" fill-rule="evenodd">
    <mask id="stripes-b" fill="#fff">
      <use xlink:href="#stripes-a"/>
    </mask>
    <g mask="url(#stripes-b)">
      <g transform="translate(-339 -617)">
        <g transform="matrix(-1 0 0 1 852 1044.921)">
          <rect width="82" height="782" x="255.759" y="-77" fill="url(#stripes-c)" fill-rule="nonzero" transform="rotate(43 296.759 314)"/>
          <rect width="82" height="782" x="327.759" y="363" fill="url(#stripes-d)" fill-rule="nonzero" transform="rotate(43 368.759 754)"/>
          <rect width="82" height="611" x="340" y="241.044" fill="url(#stripes-e)" fill-rule="nonzero" transform="rotate(-42 381 546.544)"/>
          <rect width="82" height="611" x="318" y="8.044" fill="url(#stripes-f)" fill-rule="nonzero" transform="rotate(-42 359 313.544)" style="mix-blend-mode:exclusion"/>
          <rect width="82" height="677" x="553.081" y="43.568" fill="url(#stripes-g)" fill-rule="nonzero" transform="rotate(-42 594.081 382.068)"/>
        </g>
        <g transform="matrix(-1 0 0 1 863.112 997)">
          <rect width="82" height="782" x="255.759" y="-77" fill="url(#stripes-c)" fill-rule="nonzero" transform="rotate(43 296.759 314)"/>
          <rect width="82" height="782" x="327.759" y="363" fill="url(#stripes-d)" fill-rule="nonzero" transform="rotate(43 368.759 754)"/>
          <rect width="82" height="611" x="340" y="241.044" fill="url(#stripes-e)" fill-rule="nonzero" transform="rotate(-42 381 546.544)"/>
          <rect width="82" height="611" x="318" y="8.044" fill="url(#stripes-f)" fill-rule="nonzero" transform="rotate(-42 359 313.544)" style="mix-blend-mode:exclusion"/>
          <rect width="82" height="677" x="553.081" y="43.568" fill="url(#stripes-g)" fill-rule="nonzero" transform="rotate(-42 594.081 382.068)"/>
        </g>
        <g transform="translate(143 .921)">
          <rect width="82" height="782" x="255.759" y="-77" fill="url(#stripes-c)" fill-rule="nonzero" transform="rotate(43 296.759 314)"/>
          <rect width="82" height="782" x="327.759" y="363" fill="url(#stripes-d)" fill-rule="nonzero" transform="rotate(43 368.759 754)"/>
          <rect width="82" height="782" x="401.759" y="536" fill="url(#stripes-h)" fill-rule="nonzero" transform="rotate(43 442.759 927)"/>
          <rect width="82" height="611" x="340" y="241.044" fill="url(#stripes-e)" fill-rule="nonzero" transform="rotate(-42 381 546.544)"/>
          <rect width="82" height="611" x="311" y="528.044" fill="url(#stripes-i)" fill-rule="nonzero" transform="rotate(-42 352 833.544)" style="mix-blend-mode:exclusion"/>
          <rect width="82" height="677" x="553.081" y="43.568" fill="url(#stripes-g)" fill-rule="nonzero" transform="rotate(-42 594.081 382.068)"/>
        </g>
        <g transform="translate(226.112 245)">
          <rect width="82" height="782" x="255.759" y="71" fill="url(#stripes-d)" fill-rule="nonzero" transform="rotate(43 296.759 462)"/>
          <rect width="82" height="782" x="329.759" y="244" fill="url(#stripes-h)" fill-rule="nonzero" transform="rotate(43 370.759 635)"/>
          <rect width="82" height="611" x="268" y="-50.956" fill="url(#stripes-e)" fill-rule="nonzero" transform="rotate(-42 309 254.544)"/>
          <rect width="82" height="611" x="239" y="236.044" fill="url(#stripes-f)" fill-rule="nonzero" transform="rotate(-42 280 541.544)" style="mix-blend-mode:exclusion"/>
        </g>
      </g>
    </g>
  </g>
</svg>
