
<svg width="320px" height="1540px" viewBox="0 0 320 1540" version="1.1" xmlns="http://www.w3.org/2000/svg" xmlns:xlink="http://www.w3.org/1999/xlink">
    <defs>
        <rect id="path-1" x="0" y="0" width="320" height="1567"></rect>
        <linearGradient x1="50%" y1="71.7394472%" x2="50%" y2="0%" id="linearGradient-3">
            <stop stop-color="#4D9BFF" stop-opacity="0.250245848" offset="0%"></stop>
            <stop stop-color="#253858" stop-opacity="0" offset="100%"></stop>
        </linearGradient>
        <linearGradient x1="50%" y1="71.7394472%" x2="50%" y2="21.6082556%" id="linearGradient-4">
            <stop stop-color="#4D9BFF" stop-opacity="0.198535839" offset="0%"></stop>
            <stop stop-color="#253858" stop-opacity="0" offset="100%"></stop>
        </linearGradient>
        <linearGradient x1="50%" y1="81.5023187%" x2="50%" y2="18.1525744%" id="linearGradient-5">
            <stop stop-color="#4D9BFF" stop-opacity="0.134588068" offset="0%"></stop>
            <stop stop-color="#253858" stop-opacity="0" offset="100%"></stop>
        </linearGradient>
        <linearGradient x1="50%" y1="42.433423%" x2="50%" y2="0%" id="linearGradient-6">
            <stop stop-color="#50E3C2" stop-opacity="0" offset="0%"></stop>
            <stop stop-color="#50E3C2" stop-opacity="0.173951049" offset="98.5641892%"></stop>
        </linearGradient>
        <linearGradient x1="50%" y1="71.7394472%" x2="50%" y2="0%" id="linearGradient-7">
            <stop stop-color="#4D9BFF" stop-opacity="0.250245848" offset="0%"></stop>
            <stop stop-color="#253858" stop-opacity="0" offset="100%"></stop>
        </linearGradient>
        <linearGradient x1="50%" y1="71.7394472%" x2="50%" y2="0%" id="linearGradient-8">
            <stop stop-color="#253858" stop-opacity="0" offset="0%"></stop>
            <stop stop-color="#4D9BFF" stop-opacity="0.250245848" offset="100%"></stop>
        </linearGradient>
        <linearGradient x1="50%" y1="42.433423%" x2="50%" y2="0.609263674%" id="linearGradient-9">
            <stop stop-color="#50E3C2" stop-opacity="0" offset="0%"></stop>
            <stop stop-color="#50E3C2" stop-opacity="0.173951049" offset="100%"></stop>
        </linearGradient>
    </defs>
    <g id="Page-2" stroke="none" stroke-width="1" fill="none" fill-rule="evenodd">
        <g id="Mobile---Landing-outer-shadows-dark-w/-circle-logo-indented-Copy-10" transform="translate(0.000000, -918.000000)">
            <g id="stripes" transform="translate(0.000000, 891.000000)">
                <mask id="mask-2" fill="white">
                    <use xlink:href="#path-1"></use>
                </mask>
                <g id="Mask"></g>
                <g mask="url(#mask-2)" id="Stripes">
                    <g transform="translate(-342.000000, 0.000000)">
                        <g transform="translate(426.000000, 1712.421230) scale(-1, 1) translate(-426.000000, -1712.421230) translate(0.000000, 1091.921230)">
                            <rect id="Rectangle" fill="url(#linearGradient-3)" transform="translate(296.758522, 314.000000) rotate(43.000000) translate(-296.758522, -314.000000) " x="255.758522" y="-77" width="82" height="782"></rect>
                            <rect id="Rectangle" fill="url(#linearGradient-4)" transform="translate(368.758522, 754.000000) rotate(43.000000) translate(-368.758522, -754.000000) " x="327.758522" y="363" width="82" height="782"></rect>
                            <rect id="Rectangle" fill="url(#linearGradient-5)" transform="translate(381.000000, 546.543869) rotate(-42.000000) translate(-381.000000, -546.543869) " x="340" y="241.043869" width="82" height="611"></rect>
                            <rect id="Rectangle---other" fill="url(#linearGradient-6)" style="mix-blend-mode: exclusion;" transform="translate(359.000000, 313.543869) rotate(-42.000000) translate(-359.000000, -313.543869) " x="318" y="8.04386895" width="82" height="611"></rect>
                            <rect id="Rectangle" fill="url(#linearGradient-7)" transform="translate(594.081310, 382.067648) rotate(-42.000000) translate(-594.081310, -382.067648) " x="553.08131" y="43.5676482" width="82" height="677"></rect>
                        </g>
                        <g transform="translate(437.111662, 1664.500000) scale(-1, 1) translate(-437.111662, -1664.500000) translate(11.111662, 1044.000000)">
                            <rect id="Rectangle" fill="url(#linearGradient-3)" transform="translate(296.758522, 314.000000) rotate(43.000000) translate(-296.758522, -314.000000) " x="255.758522" y="-77" width="82" height="782"></rect>
                            <rect id="Rectangle" fill="url(#linearGradient-4)" transform="translate(368.758522, 754.000000) rotate(43.000000) translate(-368.758522, -754.000000) " x="327.758522" y="363" width="82" height="782"></rect>
                            <rect id="Rectangle" fill="url(#linearGradient-5)" transform="translate(381.000000, 546.543869) rotate(-42.000000) translate(-381.000000, -546.543869) " x="340" y="241.043869" width="82" height="611"></rect>
                            <rect id="Rectangle---other" fill="url(#linearGradient-6)" style="mix-blend-mode: exclusion;" transform="translate(359.000000, 313.543869) rotate(-42.000000) translate(-359.000000, -313.543869) " x="318" y="8.04386895" width="82" height="611"></rect>
                            <rect id="Rectangle" fill="url(#linearGradient-7)" transform="translate(594.081310, 382.067648) rotate(-42.000000) translate(-594.081310, -382.067648) " x="553.08131" y="43.5676482" width="82" height="677"></rect>
                        </g>
                        <g transform="translate(143.000000, 47.921230)">
                            <rect id="Rectangle" fill="url(#linearGradient-3)" transform="translate(296.758522, 314.000000) rotate(43.000000) translate(-296.758522, -314.000000) " x="255.758522" y="-77" width="82" height="782"></rect>
                            <rect id="Rectangle" fill="url(#linearGradient-4)" transform="translate(368.758522, 754.000000) rotate(43.000000) translate(-368.758522, -754.000000) " x="327.758522" y="363" width="82" height="782"></rect>
                            <rect id="Rectangle" fill="url(#linearGradient-8)" transform="translate(442.758522, 927.000000) rotate(43.000000) translate(-442.758522, -927.000000) " x="401.758522" y="536" width="82" height="782"></rect>
                            <rect id="Rectangle" fill="url(#linearGradient-5)" transform="translate(381.000000, 546.543869) rotate(-42.000000) translate(-381.000000, -546.543869) " x="340" y="241.043869" width="82" height="611"></rect>
                            <rect id="Rectangle---other" fill="url(#linearGradient-9)" style="mix-blend-mode: exclusion;" transform="translate(352.000000, 833.543869) rotate(-42.000000) translate(-352.000000, -833.543869) " x="311" y="528.043869" width="82" height="611"></rect>
                            <rect id="Rectangle---other" fill="url(#linearGradient-6)" style="mix-blend-mode: exclusion;" transform="translate(359.000000, 313.543869) rotate(-42.000000) translate(-359.000000, -313.543869) " x="318" y="8.04386895" width="82" height="611"></rect>
                            <rect id="Rectangle" fill="url(#linearGradient-7)" transform="translate(594.081310, 382.067648) rotate(-42.000000) translate(-594.081310, -382.067648) " x="553.08131" y="43.5676482" width="82" height="677"></rect>
                        </g>
                        <g transform="translate(154.111662, -0.000000)">
                            <rect id="Rectangle" fill="url(#linearGradient-3)" transform="translate(296.758522, 314.000000) rotate(43.000000) translate(-296.758522, -314.000000) " x="255.758522" y="-77" width="82" height="782"></rect>
                            <rect id="Rectangle" fill="url(#linearGradient-4)" transform="translate(368.758522, 754.000000) rotate(43.000000) translate(-368.758522, -754.000000) " x="327.758522" y="363" width="82" height="782"></rect>
                            <rect id="Rectangle" fill="url(#linearGradient-8)" transform="translate(442.758522, 927.000000) rotate(43.000000) translate(-442.758522, -927.000000) " x="401.758522" y="536" width="82" height="782"></rect>
                            <rect id="Rectangle" fill="url(#linearGradient-5)" transform="translate(381.000000, 546.543869) rotate(-42.000000) translate(-381.000000, -546.543869) " x="340" y="241.043869" width="82" height="611"></rect>
                            <rect id="Rectangle---other" fill="url(#linearGradient-6)" style="mix-blend-mode: exclusion;" transform="translate(352.000000, 833.543869) rotate(-42.000000) translate(-352.000000, -833.543869) " x="311" y="528.043869" width="82" height="611"></rect>
                            <rect id="Rectangle---other" fill="url(#linearGradient-6)" style="mix-blend-mode: exclusion;" transform="translate(359.000000, 313.543869) rotate(-42.000000) translate(-359.000000, -313.543869) " x="318" y="8.04386895" width="82" height="611"></rect>
                            <rect id="Rectangle" fill="url(#linearGradient-7)" transform="translate(594.081310, 382.067648) rotate(-42.000000) translate(-594.081310, -382.067648) " x="553.08131" y="43.5676482" width="82" height="677"></rect>
                        </g>
                    </g>
                </g>
            </g>
        </g>
    </g>
</svg>